<svg xmlns="http://www.w3.org/2000/svg" width="563.614" height="138" viewBox="0 0 563.614 138">
    <path d="M273.31 124.325c-2.289 3.927-4.4 7.513-7.669 7.47-4.989-.065-13.274-24.261-21.7-24.372-5.5-.072-12.024 11.714-15.368 17.348-4.949-3.162-6.277-19.867-12.631-20.812-6.282-1.05-18.824 13.118-24.008 23.065-.033.061-.126.2-.2.2-.107 0-.207-.083-.157-.274h-.006c4.108-15.956 1.618-46.513-22.63-46.83-8.944-.117-11.827 1.2-20.976 3.485-7.687-30.552-17.848-54.986-38.491-55.257-28.039-.367-80.793 98.828-81.124 124.117-.109 8.337 5.006 13.334 12.369 13.882a1.665 1.665 0 0 0 1.176-.612c5.594-7.6 38.375-48.317 89.729-69.439a233.233 233.233 0 0 1 1.5 30.3c-.371 22.181-.222 14.043-.276 22.894a3.139 3.139 0 0 0 2 3.1c11.515 4.017 22.283-2.864 21.915-17.62-.226-9.124-1.957-21.506-7.156-44.973 7.766-1.789 11.334-2.923 16.838-2.851 12.041.158 17.249 9.861 17.1 21.213-.162 12.385-5.4 18-5.517 27.111-.071 5.392 3.457 9.116 10.147 9.56a1.856 1.856 0 0 0 1.522-.834c2.616-5.044 12.188-21.1 17.805-23.12a1.378 1.378 0 0 1 .31-.059.935.935 0 0 1 .683.47c2.885 5.223 7.471 18.951 15.574 19.058 4.429-4.812 10.078-15.159 15.658-18.143a.651.651 0 0 1 .223-.049.776.776 0 0 1 .578.325c3.6 4.776 11.589 19.095 21.2 19.221 11.172.142 19.452-14.373 11.582-17.574zM49 138.8C59.468 96.9 88.731 38.408 108.128 38.716c10.32.164 18.121 21.206 22.552 50.685C97.137 102.035 64.645 126.443 49 138.8zm450.828-39.548c-14.277-.186-25.584 9.3-32.34 25.9-1.441-21.353-5.757-33.28-12.811-33.373-13.59-.178-16.823 10.275-31.273 10.086-5.333-.07-6.675-2.669-10.459-2.718-3.268-.043-5.867 1.3-5.566 4.744 4.97 1.442 17.632 6.769 17.454 20.358-.088 6.709-3.748 10.275-8.221 10.216-3.784-.05-6.666-3.358-6.593-8.861.117-8.944 4.093-10.443 4.093-10.443.039-2.924-3.192-5.89-6.46-5.934-7.052-.092-8.151 4.882-15.4 6.508-20.362 4.552-17.229-11.408-26.69-11.532a12.073 12.073 0 0 0-11.638 8.45 12.314 12.314 0 0 0-8.56-3.209c-13.416-.176-21.158 26.046-40.253 25.8-5.677-.075-9.242-3.733-9.717-6.837 12.232-1.388 22.8-7.1 22.929-16.732.086-6.537-4.474-13.136-15.139-13.274-12.041-.158-22.826 8.819-23.034 24.645-.119 9.116 6.6 21.42 23.115 21.637 20.471.267 28.744-27.151 40.613-27 4.989.065 4.587 17.609 5.008 24.841 5.795 4.2 13.6-.683 13.7-8.423.146-11.181-2.747-13.628-2.7-17.24 0 0 4.579 5.048 21.093 5.264a70.584 70.584 0 0 0 13.613-1.542l-.039 2.924c-.153 11.7 9.38 19.393 19.874 19.53 11.525.151 16.814-9.587 16.925-18.016.1-7.568-3.43-14.153-6.132-17.972 10.681-1.065 11.588-4.666 19.328-4.564 15.31.2 9.666 37.014 9.441 54.217-.16 12.213 15.019 9.315 15.937 4.854-.469-3.619-.977-4.213-.84-14.705.285-21.845 12.2-38.379 24.587-38.217 8.944.117 11.781 6.865 11.725 11.165-.087 6.536-2.4 12.183-8.59 12.1a12.258 12.258 0 0 1-10.579-6.676c-1.382.325-3.5 4.427-2.5 7.192 2.163 5.534 8.848 7.516 14.7 7.591 11.354.149 20.249-9.026 20.407-21.067s-6.966-19.529-19.008-19.687zm-195.884 7.242c3.784.05 4.427 3.5 4.4 5.39-.117 8.946-9.781 11.228-13.74 11.348-.014-12.043 5.21-16.793 9.339-16.738zm287.479 28.182c-1.87 5.051-9.044 12.239-15.372 12.932-11.629 1.273-14.442-21.262-18.548-20.813-2.735.3-8.775 11.517-16.812 12.4-8.552.937-15.779-5.02-17.09-16.99-1.255-11.46 7.386-21.058 20.553-22.5 7.867-.861 13.962 1.068 16.007 5.516 2.026 4.278-.849 8.054-4.1 8.41-1.857-2.739-4.869-8.119-12.051-7.333-4.96.543-6.03 4.986-5.319 11.484.805 7.354 4.961 10.533 8.382 10.158 3.592-.393 9.078-10.339 16.772-11.181s10.054 22.261 17.066 21.493c1.539-.168 4.694-1.378 9.321-8.115 1.351-1.882 2.411 1.463 1.191 4.539z" transform="translate(-28.345 -28.346)" style="fill:#003473"/>
</svg>
